<svg id="Layer_1" xmlns="http://www.w3.org/2000/svg" viewBox="45 -38.7 133 120.7"><style>.st0{fill:#CCE7F2;} .st1{fill:#FFFFFF;} .st2{fill:#3F6689;}</style><path id="XMLID_11_" class="st0" d="M45.6 76.3l.2 6.7 131.2-.2v-6.6z"/><path id="XMLID_15_" class="st1" d="M177 76c0 1.3-1 2.3-2.3 2.3H48.3c-1.3 0-2.3-1-2.3-2.3v-87.4c0-1.3 1-2.3 2.3-2.3h126.4c1.3 0 2.3 1 2.3 2.3V76z"/><path id="XMLID_12_" class="st2" d="M174.5-12.7c.7 0 1.5.9 1.5 1.6v87.5c0 .7-.8.9-1.5.9H48.3c-.7 0-1.3-.2-1.3-.9v-87.5c0-.7.6-1.6 1.3-1.6H174m.5-2H48.3c-1.8 0-3.3 1.8-3.3 3.6v87.5c0 1.8 1.5 2.9 3.3 2.9h126.2c1.8 0 3.5-1.1 3.5-2.9v-87.5c0-1.8-1.7-3.6-3.5-3.6z"/><path id="XMLID_9_" class="st1" d="M108-29.7h12.8c1.1 0 1.2.7 1.2 1.8v14.2h6c1.1 0 2-.6 2-1.7v-20c0-1.1-.9-2.3-2-2.3h-17"/><path class="st2" d="M128-12.7h-7v-15.2c0-.5 0-.7-.1-.8H108v-2h12.8c2.2 0 2.2 2 2.2 2.8v13.2h5c.3 0 1-.1 1-.7v-20c0-.6-.5-1.3-1-1.3h-17v-2h17c1.7 0 3 1.7 3 3.3v20c0 1.6-1.2 2.7-3 2.7z"/><path id="XMLID_4_" class="st1" d="M115-29.7h-13.9c-1.1 0-1.1.7-1.1 1.8v14.2h-6c-1.1 0-2-.6-2-1.7v-20c0-1.1.9-2.3 2-2.3h21"/><path class="st2" d="M101-12.7h-7c-1.8 0-3-1.1-3-2.7v-20c0-1.6 1.3-3.3 3-3.3h21v2H94c-.5 0-1 .7-1 1.3v20c0 .6.7.7 1 .7h5v-13.2c0-1 0-2.8 2.1-2.8H115v2h-14v16z"/><path id="XMLID_7_" class="st0" d="M71.7 51.3l.1 1.6 78.2-.1v-1.6z"/><path id="XMLID_6_" class="st0" d="M175.6 30.9S161 50.5 150 51.3v2.1s14-2.5 26-21.2v-1.9l-.4.6z"/><path id="XMLID_5_" class="st0" d="M47 31.5s17.2 26.8 23 20l-.2 1.7s-8.7 3-22-18.2l-.8-1.4v-2.1z"/><path class="st2" d="M155.1 51.3H65.4c-5.8 0-19.2-20.3-19.8-21.1l.8-.6c3.8 5.8 14.6 20.7 19 20.7h89.3c1.4-1 14.7-10.8 21.7-22.6l.9.5c-7.5 12.5-22 22.9-22.1 23l-.1.1z"/><path id="XMLID_3_" class="st1" d="M142.5-13.2v76.7c0 2.8 2.7 6.3 5.5 6.3h2.2c2.8 0 6.4-3.6 6.4-6.3V-13.2h-14.1z"/><path class="st2" d="M150.2 70.3H148c-3.2 0-6-3.8-6-6.8v-77.2h15.1v77.2c0 3-3.9 6.8-6.9 6.8zm-7.2-83v76.2c0 2.5 2.5 5.8 5 5.8h2.2c2.5 0 5.9-3.4 5.9-5.8v-76.2H143z"/><path id="XMLID_2_" class="st0" d="M158.8 33.8h-17.6c-1.2 0-2.7.4-2.7 1.5V52c0 1.1 1.5 2.8 2.7 2.8h1.3V39c0-1.1 1.7-1.1 2.9-1.1h9c1.2 0 2.1 0 2.1 1.1v15.8h2.3c1.2 0 1.7-1.7 1.7-2.8V35.3c0-1.1-.5-1.5-1.7-1.5z"/><path class="st2" d="M158.8 55.3h-2.3l-.5-.5V39c0-.5-.1-.6-1.6-.6h-9c-.9 0-2.4 0-2.4.6v15.8l-.5.5h-1.3c-1.5 0-3.2-2-3.2-3.3V35.3c0-1.4 1.6-2 3.2-2h17.6c.9 0 2.2.2 2.2 2V52c0 1.3-.6 3.3-2.2 3.3zm-1.8-1h1.8c.8 0 1.2-1.4 1.2-2.3V35.3c0-.7-.2-1-1.2-1h-17.6c-.9 0-2.2.3-2.2 1V52c0 .8 1.3 2.3 2.2 2.3h.8V39c0-1.6 2.1-1.6 3.4-1.6h9c1.2 0 2.6 0 2.6 1.6v15.3z"/><g><path class="st0" d="M149.8 43.5h-.6c-1.1 0-2-.9-2-2v-9.6c0-1.1.9-2 2-2h.6c1.1 0 2 .9 2 2v9.6c0 1.1-.9 2-2 2z"/><path class="st2" d="M149.8 44h-.6c-1.4 0-2.5-1.1-2.5-2.5v-9.6c0-1.4 1.1-2.5 2.5-2.5h.6c1.4 0 2.5 1.1 2.5 2.5v9.6c0 1.4-1.1 2.5-2.5 2.5zm-.6-13.6c-.8 0-1.5.7-1.5 1.5v9.6c0 .8.7 1.5 1.5 1.5h.6c.8 0 1.5-.7 1.5-1.5v-9.6c0-.8-.7-1.5-1.5-1.5h-.6z"/></g><g><path id="XMLID_1_" class="st1" d="M65.5-13.2v76.7c0 2.8 2.7 6.3 5.5 6.3h2.2c2.8 0 6.4-3.6 6.4-6.3V-13.2H65.5z"/><path class="st2" d="M73.2 70.3H71c-3.2 0-6-3.8-6-6.8v-77.2h15.1v77.2c0 3-3.9 6.8-6.9 6.8zm-7.2-83v76.2c0 2.5 2.5 5.8 5 5.8h2.2c2.5 0 5.9-3.4 5.9-5.8v-76.2H66z"/></g><g><path id="XMLID_8_" class="st0" d="M81.8 33.8H64.2c-1.2 0-2.7.4-2.7 1.5V52c0 1.1 1.5 2.8 2.7 2.8h1.3V39c0-1.1 1.7-1.1 2.9-1.1h9c1.2 0 2.1 0 2.1 1.1v15.8h2.3c1.2 0 1.7-1.7 1.7-2.8V35.3c0-1.1-.5-1.5-1.7-1.5z"/><path class="st2" d="M81.8 55.3h-2.3l-.5-.5V39c0-.5-.1-.6-1.6-.6h-9c-.9 0-2.4 0-2.4.6v15.8l-.5.5h-1.3c-1.5 0-3.2-2-3.2-3.3V35.3c0-1.4 1.6-2 3.2-2h17.6c.9 0 2.2.2 2.2 2V52c0 1.3-.6 3.3-2.2 3.3zm-1.8-1h1.8c.8 0 1.2-1.4 1.2-2.3V35.3c0-.7-.2-1-1.2-1H64.2c-.9 0-2.2.3-2.2 1V52c0 .8 1.3 2.3 2.2 2.3h.8V39c0-1.6 2.1-1.6 3.4-1.6h9c1.2 0 2.6 0 2.6 1.6v15.3z"/></g><g><path class="st0" d="M72.8 43.5h-.6c-1.1 0-2-.9-2-2v-9.6c0-1.1.9-2 2-2h.6c1.1 0 2 .9 2 2v9.6c0 1.1-.9 2-2 2z"/><path class="st2" d="M72.8 44h-.6c-1.4 0-2.5-1.1-2.5-2.5v-9.6c0-1.4 1.1-2.5 2.5-2.5h.6c1.4 0 2.5 1.1 2.5 2.5v9.6c0 1.4-1.1 2.5-2.5 2.5zm-.6-13.6c-.8 0-1.5.7-1.5 1.5v9.6c0 .8.7 1.5 1.5 1.5h.6c.8 0 1.5-.7 1.5-1.5v-9.6c0-.8-.7-1.5-1.5-1.5h-.6z"/></g><g><path class="st0" d="M81.4 16.3H63.9c-1.1 0-2-.9-2-2v-1.5c0-1.1.9-2 2-2h17.5c1.1 0 2 .9 2 2v1.5c0 1.1-.9 2-2 2z"/><path class="st2" d="M81.4 16.8H63.9c-1.4 0-2.5-1.1-2.5-2.5v-1.5c0-1.4 1.1-2.5 2.5-2.5h17.5c1.4 0 2.5 1.1 2.5 2.5v1.5c0 1.4-1.1 2.5-2.5 2.5zm-17.5-5.5c-.8 0-1.5.7-1.5 1.5v1.5c0 .8.7 1.5 1.5 1.5h17.5c.8 0 1.5-.7 1.5-1.5v-1.5c0-.8-.7-1.5-1.5-1.5H63.9z"/></g><g><path class="st0" d="M158.4 16.3h-17.5c-1.1 0-2-.9-2-2v-1.5c0-1.1.9-2 2-2h17.5c1.1 0 2 .9 2 2v1.5c0 1.1-.9 2-2 2z"/><path class="st2" d="M158.4 16.8h-17.5c-1.4 0-2.5-1.1-2.5-2.5v-1.5c0-1.4 1.1-2.5 2.5-2.5h17.5c1.4 0 2.5 1.1 2.5 2.5v1.5c0 1.4-1.1 2.5-2.5 2.5zm-17.5-5.5c-.8 0-1.5.7-1.5 1.5v1.5c0 .8.7 1.5 1.5 1.5h17.5c.8 0 1.5-.7 1.5-1.5v-1.5c0-.8-.7-1.5-1.5-1.5h-17.5z"/></g></svg>