<?xml version="1.0" encoding="utf-8"?>
<!-- Generator: Adobe Illustrator 17.1.0, SVG Export Plug-In . SVG Version: 6.00 Build 0)  -->
<!DOCTYPE svg PUBLIC "-//W3C//DTD SVG 1.1//EN" "http://www.w3.org/Graphics/SVG/1.1/DTD/svg11.dtd">
<svg version="1.1" id="Layer_1" xmlns="http://www.w3.org/2000/svg" xmlns:xlink="http://www.w3.org/1999/xlink" x="0px" y="0px"
	 viewBox="0 0 40 40" enable-background="new 0 0 40 40" xml:space="preserve">
<g>
	<path d="M1.686,7.414c-0.078-0.024-0.166-0.07-0.228-0.131c-0.198-0.198-0.198-0.519,0-0.717h10.204
		c0.197,0.198,0.197,0.519,0,0.717c-0.072,0.072-0.171,0.12-0.264,0.14L9.538,7.726C8.931,7.844,8.474,8.378,8.473,9.019v17.309
		c0,1.527,0.275,3.427,0.712,4.82c0.436,1.393,1.709,2.909,3.253,3.561c1.477,0.62,3.362,0.999,5.402,0.999
		c2.153,0,4.12-0.416,5.631-1.099c1.496-0.668,2.659-1.969,3.151-3.551c0.421-1.376,0.671-3.002,0.671-4.729c0,0,0-15.335,0-20.116
		c0-4.354,2.139-5.792,5.5-5.792c3.361,0,6.04,0,6.04,0c0.224,0.224,0.224,0.586,0,0.81c-0.082,0.081-0.194,0.136-0.299,0.158
		L36.427,1.68c-1.246,0.218-1.572,0.714-1.572,2.014l-0.013,2.283v20.695c0,1.322-0.12,2.609-0.325,3.793
		c-0.684,3.865-3.646,6.96-7.438,7.849c-2.283,0.544-4.884,0.842-7.633,0.842c-2.758,0-5.373-0.309-7.66-0.857
		c-3.672-0.904-6.552-3.885-7.3-7.616c-0.261-1.318-0.415-2.766-0.415-4.269L4.072,9.019c0-0.624-0.443-1.152-1.027-1.287"/>
</g>
</svg>
