<?xml version="1.0" encoding="utf-8"?>
<!-- Generator: Adobe Illustrator 17.1.0, SVG Export Plug-In . SVG Version: 6.00 Build 0)  -->
<!DOCTYPE svg PUBLIC "-//W3C//DTD SVG 1.1//EN" "http://www.w3.org/Graphics/SVG/1.1/DTD/svg11.dtd">
<svg version="1.1" id="Layer_1" xmlns="http://www.w3.org/2000/svg" xmlns:xlink="http://www.w3.org/1999/xlink" x="0px" y="0px"
	 viewBox="0 0 207.9 197.7" enable-background="new 0 0 207.9 197.7" xml:space="preserve">
<g>
	<g>
		<path fill="#FFFFFF" d="M22,38c3,0.7,5.2,3.4,5.2,6.5l0,88c0,7.6,0.8,14.9,2.1,21.6c3.8,18.9,18.4,34,36.9,38.5
			c11.6,2.8,24.8,4.3,38.8,4.3c13.9,0,27.1-1.5,38.6-4.3c19.2-4.5,34.2-20.2,37.6-39.7c1-6,1.6-12.5,1.6-19.2V29.1l0.1-11.6
			c0-6.6,1.7-9.1,8-10.2l10.7-1.5c0.5-0.1,1.1-0.4,1.5-0.8c1.1-1.1,1.1-3,0-4.1c0,0-13.6,0-30.6,0c-17,0-27.8,7.3-27.8,29.3
			c0,24.2,0,101.8,0,101.8c0,8.7-1.3,17-3.4,23.9c-2.5,8-8.4,14.6-15.9,18c-7.6,3.5-17.6,5.6-28.5,5.6c-10.3,0-19.9-1.9-27.3-5.1
			c-7.8-3.3-14.2-11-16.5-18c-2.2-7.1-3.6-16.7-3.6-24.4V44.5c0-3.2,2.3-5.9,5.4-6.5l9.4-1.5c0.5-0.1,1-0.3,1.3-0.7c1-1,1-2.6,0-3.6
			H14c-1,1-1,2.6,0,3.6c0.3,0.3,0.8,0.5,1.2,0.7L22,38z"/>
	</g>
</g>
</svg>
