<?xml version="1.0" encoding="utf-8"?>
<!-- Generator: Adobe Illustrator 16.0.0, SVG Export Plug-In . SVG Version: 6.00 Build 0)  -->
<!DOCTYPE svg PUBLIC "-//W3C//DTD SVG 1.1//EN" "http://www.w3.org/Graphics/SVG/1.1/DTD/svg11.dtd">
<svg version="1.1" id="Capa_1" xmlns="http://www.w3.org/2000/svg" xmlns:xlink="http://www.w3.org/1999/xlink" x="0px" y="0px"
	 width="300px" height="300px" viewBox="0 0 300 300" enable-background="new 0 0 300 300" xml:space="preserve">
<path fill-rule="evenodd" clip-rule="evenodd" fill="#FFFFFF" d="M1,115.986c3.045-4.66,7.386-8.269,9.166-14.035
	c1.417-4.587,6.097-6.286,10.983-6.206c0.991,0.017,2.018,0.472,2.961,0.316c2.283-0.378,4.406-2.335,4.342-3.973
	c-0.059-1.495-1.758-3.997-4.219-4.161c-8.117-0.541-12.649-4.439-12.438-12.913c0.042-1.7-1.352-2.142-2.276-3.009
	c-4.116-3.858-5.124-9.281-2.484-13.457c2.895-4.581,8.971-6.451,14.071-3.745c2.563,1.36,4.611,1.502,7.35,0.753
	c8.077-2.21,14.864,2.338,16.416,10.796c0.366,1.991,0.685,3.179,3.128,3.573c3.464,0.56,5.881,2.898,7.131,6.295
	c0.445,1.208,0.097,3.625,2.392,2.615c1.56-0.686,3.833-1.462,2.936-4.377c-0.518-1.681-0.417-3.635-0.233-5.429
	c0.225-2.187,1.021-4.958,2.784-5.654c8.103-3.201,14.92-9.766,24.249-9.709c4.241,0.026,7.126,2.485,8.804,6.305
	c1.662,3.786,1.625,7.559-1.115,10.786c-1.528,1.799-2.032,3.446-1.824,5.816c0.618,7.033-2.393,11.081-9.328,12.396
	c-2.745,0.521-4.269,1.119-4.997,4.275c-0.915,3.964-4.039,6.445-8.296,6.828c-6.098,0.546-10.554-2.416-13.909-7.153
	c-1.945-2.746-2.726-6.022-3.322-9.332c-0.926-5.14-3.485-9.068-8.894-10.185c-2.155-0.444-2.355-1.662-2.808-3.375
	c-2.063-7.807-7.846-11.669-15.597-10.29c-1.896,0.337-3.19-0.287-4.655-1.027c-3.826-1.933-6.924-0.629-9.093,2.603
	c-2.091,3.115-1.938,6.438,1.196,8.902c1.373,1.08,1.547,2.287,1.875,3.771c1.299,5.867,5.048,9.343,10.989,9.838
	c2.288,0.19,3.507,0.817,4.522,2.93c1.574,3.275,4.938,4.651,9.347,6.564c-7.363,1.301-11.602,6.676-18.442,6.778
	c-4.772,0.071-8.318,3.328-9.493,8.23c-0.504,2.104-1.909,2.816-3.471,3.823c-4.239,2.73-5.02,7.473-2.051,11.169
	c3.045,3.792,7.862,4.275,11.321,0.729c1.533-1.571,2.885-2.31,5.075-2.332c4.786-0.049,8.107-2.594,10.067-6.893
	c0.69-1.515,1.055-3.086,3.196-3.316c3.533-0.379,6.358-2.026,7.647-5.512c0.562-1.52,2.095-0.684,2.842-1.541
	c0.102,0.911,0.355,1.834,0.279,2.731c-0.348,4.127-2.618,6.887-6.607,7.704c-2.522,0.517-3.857,1.216-4.636,4.019
	c-1.352,4.866-5.886,7.258-11.461,6.582c-1.798-0.218-2.964-0.135-4.376,1.245c-7.292,7.13-13.795,5.893-18.234-3.272
	c-0.114-0.236-0.534-0.325-0.811-0.482C1,120.652,1,118.318,1,115.986z M68.903,96.079c7.972,0.476,7.3-12.091,15.909-13.131
	c2.413-0.292,4.014-4.233,4.227-7.403c0.146-2.186,0.722-4.089,1.871-6.028c2.272-3.833,1.548-7.5-2.097-10.09
	c-3.536-2.513-7.344-2.552-10.237,0.996c-1.657,2.032-3.562,2.616-5.912,3.055c-5.571,1.041-9.112,5.268-8.721,10.96
	c0.195,2.841-0.591,4.548-2.704,6.261c-2.96,2.399-4.123,5.502-2.508,9.306C60.405,93.946,63.291,95.99,68.903,96.079z"/>
<path fill-rule="evenodd" clip-rule="evenodd" fill="#FFFFFF" d="M62.624,123.616c-6.917,0.592-13.441,1.152-20.169,1.729
	c0.393-3.212,2.231-3.681,4.768-3.624c5.759,0.131,11.501-0.035,17.156-1.444c3.215-0.802,4.015-1.936,1.424-4.55
	c-4.688-4.733-9.248-9.593-13.859-14.401c-0.691-0.721-1.542-1.353-2.02-2.196c-0.837-1.478-0.505-3.177,0.817-3.984
	c1.505-0.919,1.729,1.024,2.295,1.809c4.21,5.839,9.227,10.927,14.406,15.887c2.116,2.027,3.639,2.729,6.09,0.096
	c8.2-8.807,17.561-16.308,27.665-22.815c3.875-2.495,5.974-6.104,7.982-9.955c2.461-4.717,4.798-9.525,8.962-13.09
	c5.824-4.985,13.781-5.293,19.541-0.244c3.703,3.246,8.721,2.999,12.648,5.497c-1.519,1.918-5.212,1.718-5.358,3.982
	c-0.161,2.498,3.656,1.384,5.048,3.323c-3.354,1.681-6.766,3.331-10.116,5.097c-1.612,0.849-3.198,1.802-4.638,2.914
	c-4.125,3.184-9.491,6.905-9.021,11.801c0.325,3.386,6.768,4.967,10.887,6.643c1.507,0.613,3.009,1.237,4.682,1.926
	c-5.636,4.22-5.636,4.22-1.039,8.392c-6.678,2.451-13.246,4.981-18.664,11.299c22.282,0.222,43.81-0.985,65.8,2.497
	c-4.32-8.353-5.917-16.874-7.667-25.317c-0.805-3.883-3.083-5.359-6.572-6.247c-5.681-1.445-11.204,0.601-17.312,0.544
	c1.295-2.411,2.42-4.503,3.618-6.733c-2.725-1.175-5.22,0.212-8.371-0.699c6.221-5.528,8.678-12.908,12.203-19.75
	c4.418-8.571,17.308-11.04,26.441-5.802c1.576,0.904,3.22,1.922,4.384,3.273c9.505,11.043,21.5,19.403,31.709,29.664
	c2.439,2.452,4.023,2.358,6.627,0.388c8.812-6.667,14.006-15.511,15.803-26.23c0.535-3.187,1.749-3.883,4.465-3.549
	c3.922,0.482,7.847,0.941,11.875,1.423c-2.267,4.666-4.563,9.055-6.53,13.586c-0.886,2.04-2.032,4.691,0.4,6.35
	c2.253,1.536,4.106-0.57,5.657-1.89c4.098-3.485,7.089-7.938,9.9-12.458c1.719-2.762,3.089-3.821,5.82-0.968
	c2.485,2.595,5.484,4.699,8.485,7.211c-2.78,1.818-5.171,3.243-7.392,4.896c-0.975,0.725-2.462,1.604-1.757,3.192
	c0.666,1.501,2.266,1.128,3.552,1.107c4.766-0.074,8.821-2.593,13.115-4.136c0.285,0.445,0.577,0.69,0.579,0.936
	c0.029,4.49,1.473,9.735-0.369,13.263c-1.941,3.719-7.881,1.071-11.92,2.447c-3.104,1.058-6.518,1.178-9.757,1.887
	c-0.866,0.189-2.196,0.227-2.438,1.383c-0.318,1.528,1.188,1.918,2.12,2.314c1.972,0.837,4.034,1.653,6.133,1.947
	c2.728,0.381,3.599,1.463,3.272,4.26c-1.092,9.362-0.992,9.348-9.938,6.395c-6.65-2.195-13.396-3.862-20.482-3.88
	c-1.991-0.006-3.517,0.229-4.69,2.026c-1.367,2.096,0.096,3.435,1.035,4.931c18.793,29.947,33.005,62.177,47.059,94.483
	c0.118,0.271,0.015,0.638,0.015,1.589c-6.78-2.869-12.262-7.627-19.541-11.238c1.591,5.563,2.46,10.403,4.422,14.751
	c1.078,2.388,1.988,4.842,2.847,7.271c2.173,6.152,1.205,7.59-5.354,7.007c-4.922-0.437-8.37,1.117-11.048,5.056
	c-0.648,0.955-1.474,1.819-2.333,2.599c-3.547,3.218-6.63,2.372-7.51-2.367c-2.056-11.086-3.87-22.217-5.713-33.342
	c-1.114-6.729-2.053-13.485-3.164-20.215c-0.351-2.126-1.117-3.982-2.874-5.606c-4.521-4.177-8.761-8.655-13.111-13.016
	c-0.588-0.59-1.065-1.37-1.764-1.752c-2.274-1.244-4.772-3.765-7.063-2.672c-1.981,0.945-0.972,4.294-0.637,6.469
	c0.704,4.582,1.051,8.728-3.279,12.03c-1.899,1.449-0.912,4.165-0.663,6.182c0.591,4.79-1.59,7.944-5.203,10.507
	c-11.157,7.909-22.705,14.945-35.998,18.941c-10.856,3.264-21.834,1.722-32.712,1.561c-9.102-0.134-17.978,0.537-26.645,2.924
	c-6.832,1.883-13.318,1.307-19.387-1.708c-3.499-1.737-5.832-1.117-8.544,0.986c-8.018,6.221-16.243,12.182-24.104,18.59
	c-4.726,3.852-10.117,5.62-15.875,6.619c-3.804,0.661-7.305,0.594-10.373-2.873c-2.825-3.189-7.074-4.626-11.383-3.934
	c-4.539,0.729-7.423-1.307-9.614-4.692c-5.679-8.772-7.446-18.287-5.442-28.623c0.935-4.821,3.566-7.194,8.232-7.874
	c6.615-0.964,12.75-3.547,19.023-5.698c3.482-1.194,3.269-2.359,0.954-4.633c-2.25-2.208-4.14-4.78-6.245-7.143
	c-2.395-2.687-3.888-5.625-4.096-9.369c-0.235-4.256-3.017-7.665-4.655-11.457c-0.582-1.347-1.966-2.939-0.581-4.104
	c3.399-2.859,2.246-5.412,0.041-8.139c-0.622-0.769-1.55-2.057-0.632-2.586c4.044-2.331,3.155-5.989,3.288-9.617
	c0.089-2.427,2.174-3.959,4.372-5.063c5.579-2.806,11.569-4.142,17.697-4.769C56.885,130.571,60.726,129.351,62.624,123.616z
	 M142.893,79.385c-3.111-1.345-5.954-2.256-1.854-4.479c1.438-0.78,1.165-1.865-0.336-2.499c-1.061-0.448-2.253-0.675-3.203-1.285
	c-9.902-6.358-15.331-5.981-20.63,4.309c-5.735,11.137-13.841,19.221-24.097,25.767c-2.644,1.688-4.917,3.973-7.299,6.055
	c-11.981,10.469-22.209,22.501-31.528,35.352c-0.729,1.007-1.15,3.38-3.209,1.863c-1.893-1.396,0.134-2.578,0.631-3.801
	c0.714-1.756,2.783-2.876,2.475-5.612c-3.343,0.629-6.573,1.182-9.776,1.862c-1.454,0.309-2.945,0.687-4.259,1.351
	c-2.124,1.072-4.256,2.299-2.696,5.354c2.468,4.829,12.684,8.737,17.848,6.782c10.06-3.807,27.142,0.399,34.508,8.495
	c-2.082,1.683-4.155,1.298-6.418,0.246c-3.756-1.745-7.551-3.447-11.445-4.846c-4.314-1.549-9.096-2.459-13.042,0.151
	c-6.81,4.508-12.639,2.771-18.519-1.443c-0.672-0.482-1.406-0.88-2.11-1.316c-0.792-0.492-1.57-1.574-2.551-0.704
	c-0.872,0.772-1.389,1.971-0.979,3.179c0.649,1.908,1.675,3.637,3.172,5.021c5.697,5.262,12.373,8.253,20.162,8.703
	c2.016,0.116,5.286-0.956,5.399,1.843c0.112,2.767-3.316,2.521-5.486,2.902c-0.946,0.166-1.982-0.096-2.965-0.24
	c-6.865-1.011-13.202-3.24-18.458-7.986c-0.807-0.729-1.685-2.138-2.854-1.163c-0.915,0.762-0.513,2.231,0.032,3.278
	c0.611,1.173,1.329,2.323,2.179,3.333c4.808,5.722,10.66,10.571,17.656,12.648c9.315,2.766,19.099,3.871,27.348-3.62
	c1.503-1.364,3.202-1.777,5.071-1.452c6.964,1.211,13.675,3.236,20.575,6.263c-2.529,2.061-4.552,1.678-6.903,0.849
	c-4.212-1.486-8.478-3.021-13.094-2.608c-3.09,0.276-5.675,1.576-6.188,4.789c-0.56,3.509,2.734,3.597,4.927,4.484
	c0.754,0.306,1.614,0.405,2.436,0.479c9.116,0.822,18.201,0.479,27.276-0.646c1.962-0.243,4.183-0.644,5.332,2.258
	c-13.312,2.311-26.306,3.231-39.426,1.741c-1.625-0.185-2.981-0.853-3.773-2.106c-2.618-4.149-6.683-4.86-10.934-4.431
	c-8.711,0.882-16.454-1.375-23.543-6.325c-1.201-0.838-2.443-1.777-4.133-0.81c2.183,4.505,6.441,7.135,9.63,10.698
	c1.33,1.485,3.636,2.178,5.558,1.478c8.658-3.149,15.633,0.647,22.261,5.338c4.27,3.021,8.505,4.618,13.912,3.996
	c6.66-0.767,12.477,3.199,15.016,9.378c0.716,1.744,2.049,4.052-0.495,5.236c-2.979,1.387-2.417-1.979-3.06-3.137
	c-4.104-7.385-9.294-9.175-16.713-5.09c-1.479,0.814-2.048,0.288-2.933-0.479c-1.761-1.527-3.481-3.11-5.315-4.548
	c-7.407-5.801-15.434-9.357-24.975-5.934c-9.358,3.356-18.45,7.476-28.221,9.621c-1.118,0.245-1.499,1.112-1.887,2.092
	c-3.304,8.346-3.652,16.51,1.36,24.379c1.939,3.043,4.062,5.273,8.335,5.096c4.571-0.189,8.697,1.749,12.195,4.938
	c4.462,4.07,13.998,3.071,17.207-2.055c3.669-5.86,5.737-12.288,5.132-19.417c-0.287-3.391-1.953-5.919-4.8-6.995
	c-4.731-1.788-9.589-3.886-14.897-1.88c-1.642,0.621-3.311,1.577-5.364,0.609c0.739-1.749,3.375-1.631,3.691-3.943
	c-1.027-1.249-3.338,0.054-4.125-1.634c0.104-1.034,0.873-1.067,1.479-1.063c9.276,0.061,17.849,2.701,25.776,7.393
	c3.37,1.992,4.499,4.856,3.212,8.916c-1.359,4.289-2.006,8.804-2.964,13.221c0.405,0.325,0.81,0.65,1.215,0.976
	c6.077-7.819,15.974-10.049,22.781-16.834c1.889-1.883,4.288-3.968,7.038-2.56c7.818,4.004,15.472,3.794,24.013,1.978
	c13.699-2.913,27.813-2.433,41.808-1.971c2.657,0.088,5.461,0.866,7.94,0.268c12.534-3.025,24.536-7.378,34.371-16.173
	c2.712-2.425,5.647-4.689,7.334-8.082c1.655-3.331,0.654-5.125-3.043-5.259c-2.814-0.101-5.636-0.02-9.639-0.02
	c3.951-2.831,7.36-3.431,10.678-4.134c2.085-0.44,3.858-1.17,4.818-3.124c2.214-4.505,3.845-9.197,4.265-14.248
	c0.098-1.182,0.292-2.4-1.033-3.045c-1.553-0.754-2.433,0.255-3.348,1.315c-2.063,2.393-4.017,4.922-6.339,7.04
	c-4.032,3.682-6.784,3.445-9.896-1.113c-2.804-4.104-5-8.621-7.584-12.882c-1.851-3.051-3.025-6.62-6.285-8.91
	c-0.482,0.737-0.808,1.31-1.203,1.826c-0.857,1.118,0.119,4.112-2.611,3.205c-2.566-0.853-0.424-2.757-0.301-4.201
	c0.014-0.161,0.105-0.314,0.158-0.473c0.673-1.993,1.192-4.096-1.283-5.13c-2.265-0.946-3.262,0.927-4.182,2.521
	c-0.851,1.472-1.227,3.475-4.14,2.881c0.881-3.929,1.065-8.128,5.661-9.689c4.373-1.485,7.293,1.058,9.719,4.265
	c2.609,3.452,5.085,7.005,7.683,10.464c1.24,1.65,2.195,4.777,4.272,4.145c2.241-0.683,2.514-4.028,3.589-6.228
	c0.733-1.5-0.804-2.369-1.553-3.398c-2.545-3.5-5.445-6.791-7.595-10.517c-2.313-4.013-5.473-5.633-9.94-6.255
	c-16.903-2.355-33.885-2.261-50.871-2.033c-5.288,0.07-11.362-1.812-15.665,1.008c-4.333,2.84-4.887,9.158-6.74,14.118
	c-0.354,0.947-0.114,2.648-1.987,2.163c-1.825-0.474-1.606-1.837-1.182-3.198c2.653-8.507,6.189-16.535,12.867-22.747
	c3.768-3.505,8.39-5.713,13.573-7.881c-1.553-1.328-2.605-2.229-3.452-2.953c0.583-2.164,3.602-1.637,3.542-4.124
	c-1.818-0.858-3.665-1.588-5.375-2.56c-7.97-4.527-13.766-3.039-18.274,5.075c-2.227,4.006-4.845,7.565-8.653,10.141
	c-10.467,7.082-20.954,14.137-31.451,21.175c-1.492,1-3.076,2.201-4.875-0.003c11.265-7.82,22.421-15.646,33.674-23.33
	c3.374-2.305,6.24-4.883,7.983-8.671c2.324-5.052,5.799-8.908,11.535-10.134c1.176-0.251,2.161-0.705,2.707-1.931
	C125.952,89.34,133.252,83.818,142.893,79.385z M163.464,95.389c9.523-2.285,18.602,1.15,20.747,9.345
	c0.843,3.218,0.912,6.594,1.67,9.901c2.53,11.028,8.383,20.378,15.537,28.561c5.981,6.84,7.881,12.76,2.103,20.196
	c-0.293,0.378-0.453,0.906-0.54,1.389c-0.39,2.18,0.424,4.04,2.116,5.251c1.816,1.3,3.113-0.335,4.268-1.43
	c2.052-1.946,4.047-3.968,5.903-6.1c1.052-1.207,1.968-2.397,3.7-1.471c1.209,0.647,2.741,1.591,3.616,0.479
	c1.202-1.53-0.705-2.66-1.525-3.746c-7.431-9.839-14.345-20.018-20.247-30.849c-2.143-3.931-3.942-8.052-5.843-12.112
	c-0.589-1.257-0.908-2.734,0.603-3.511c1.678-0.864,2.447,0.681,3.014,1.787c1.512,2.956,2.742,6.054,4.255,9.008
	c17.447,34.085,42.763,61.233,73.749,83.325c3.801,2.711,7.399,5.907,13.324,7.702c-2.831-6.064-5.256-11.069-7.494-16.154
	c-0.79-1.795-1.984-2.952-3.628-3.885c-12.539-7.117-23.07-16.681-32.659-27.298c-5.806-6.428-11.11-13.282-15.237-21.507
	c3.721,0.761,3.678,0.791,5.506,3.448c9.869,14.34,21.146,27.319,35.709,37.176c1.264,0.854,2.602,1.406,3.561,0.711
	c1.294-0.937,0.171-2.408-0.353-3.496c-9.365-19.471-18.298-39.219-30.838-56.922c-15.179-21.428-36.974-36.325-55.337-54.627
	c-6.609-6.587-17.29-3.765-22.427,4.21c-2.757,4.279-3.387,9.616-7.402,13.265c2.715,1.498,5.02-0.166,7.158,0.638
	C165.946,91.302,162.802,92.475,163.464,95.389z M283.146,95.454c-3.322,0.045-5.887,0.109-6.935-2.51
	c-1.212-3.028,1.087-4.878,2.85-6.89c1.15-1.313,4.479-2.005,1.402-4.829c-2.797-2.566-4.055-0.977-5.774,1.271
	c-3.421,4.473-6.667,9.18-11.703,12.109c-2.307,1.342-4.677,1.716-7.019,0.102c-2.434-1.677-2.704-4.144-1.971-6.677
	c1.012-3.491,2.348-6.886,3.44-10.354c0.384-1.217,2.88-2.796-0.266-3.697c-1.864-0.533-4.014-1.3-4.692,1.711
	c-2.552,11.319-8.621,20.357-17.831,27.321c-1.713,1.295-1.905,2.345-0.305,3.976c3.021,3.08,5.9,6.303,8.719,9.57
	c1.336,1.549,2.35,2.032,4.004,0.336c6.464-6.629,14.789-10.005,23.378-12.656c6.483-2.001,13.132-3.564,19.956-3.951
	c3.613-0.205,3.259-2.721,3.076-5.001c-0.283-3.541-2.442-1.442-3.953-1.145C287.09,94.621,284.663,95.14,283.146,95.454z
	 M252.641,191.906c2.078,10.112,2.249,18.943,4.958,27.533c2.079,6.59,2.529,13.698,3.631,20.589
	c0.248,1.551,0.47,3.164,2.164,3.573c1.681,0.406,2.594-1.093,3.667-2.125c2.699-2.592,2.252-5.693,1.546-8.845
	c-2.18-9.727-4.85-19.376-6.379-29.204C261.352,197.8,257.98,195.348,252.641,191.906z M264.946,201.828
	c2.452,9.571,4.653,18.185,6.866,26.795c0.453,1.763,0.695,3.64,1.485,5.241c1.408,2.856,4.138,3.323,6.817,2.417
	c2.887-0.976,1.402-3.197,0.825-5.008c-1.894-5.946-4.263-11.786-5.592-17.854C274.107,207.751,270.653,204.659,264.946,201.828z
	 M266.193,109.234c-3.159,1.585-6.039,2.825-8.683,4.449c-1.177,0.724-1.224,2.06,0.714,2.182c6.658,0.421,13.041,1.961,19.17,4.584
	c1.087,0.465,2.021,0.204,2.321-0.981c0.273-1.082,0.999-2.817-0.019-3.252C275.043,114.23,270.171,112.746,266.193,109.234z"/>
<path fill-rule="evenodd" clip-rule="evenodd" fill="#FFFFFF" d="M40.208,84.137c-0.77-0.45-1.376-0.725-1.891-1.118
	c-5.248-4.016-10.343-8.211-14.82-13.098c-0.627-0.685-1.671-1.453-0.737-2.478c0.818-0.899,1.808-0.375,2.658,0.222
	c5.551,3.901,10.717,8.257,15.434,13.135c0.528,0.545,1.324,1.18,0.729,2.096C41.263,83.387,40.691,83.714,40.208,84.137z"/>
<path fill-rule="evenodd" clip-rule="evenodd" fill="#FFFFFF" d="M31.951,103.742c0.144,0.083,0.681,0.213,0.872,0.543
	c0.397,0.687-0.066,1.261-0.578,1.709c-4.247,3.721-8.7,7.166-13.573,10.039c-0.577,0.34-1.303,0.618-1.727-0.153
	c-0.196-0.356-0.154-0.964,0.003-1.372C17.693,112.573,29.834,103.722,31.951,103.742z"/>
<path fill-rule="evenodd" clip-rule="evenodd" fill="#FFFFFF" d="M82.729,65.603c-2.532,6.867-6.717,12.604-11.944,17.621
	c-0.606,0.581-1.514,1-2.122,0.1c-0.268-0.396-0.179-1.321,0.115-1.764C72.692,75.659,76.876,69.974,82.729,65.603z"/>
<path fill-rule="evenodd" clip-rule="evenodd" fill="#FFFFFF" d="M201.582,198.96c-4.731,7.708-10.086,10.221-19.693,7.598
	c-5.161-1.41-9.542-1.024-14.291,1.175c-11.435,5.291-23.314,8.673-36.16,7.244c-2.352-0.262-4.632-0.103-5.892-2.945
	c5.877-0.655,11.683,0.279,17.393-1.144c3.812-0.95,4.154-2.47,2.284-5.528c-4.416-7.223-7.523-8.189-15.107-4.43
	c-1.786,0.884-3.645,1.68-5.285,2.789c-8.196,5.548-15.39,1.742-23.318-2.201c2.021-0.886,3.251-0.86,4.625-0.116
	c4.641,2.516,9.142,1.89,13.775-0.367c5.511-2.686,11.219-4.966,16.823-7.465c3.516-1.566,6.314-1.388,8.187,2.57
	c0.84,1.776,2.282,3.267,3.434,4.897c5.308,7.512,5.265,7.418,13.636,3.842c6.646-2.837,12.041-7.306,16.049-13.088
	c6.79-9.795,16.311-11.595,27.186-10.511c-0.244,2.966-2.326,3.42-4.615,3.2c-11.061-1.063-16.419,6.295-21.295,14.337
	c-2.112,3.486,1.472,4.08,3.104,4.738c5.251,2.116,10.154,0.386,14.62-2.576C198.259,200.171,199.462,199.61,201.582,198.96z"/>
<path fill-rule="evenodd" clip-rule="evenodd" fill="#FFFFFF" d="M59.742,177.728c1.557-1.863,2.752-2.846,4.879-2.464
	c1.852,0.331,3.627-0.273,5.211-1.288c2.435-1.557,6.543-2.533,5.845-5.885c-0.795-3.818-4.813-5.068-8.571-5.641
	c-2.75-0.418-5.37,1.431-8.341,0.669c4.742-4.981,8.774-6.358,13.833-2.994c6.268,4.168,13.318,3.52,20.028,4.966
	c1.297,0.279,2.292-0.258,3.053-1.236c5.861-7.537,13.912-7.149,22.247-6.443c-0.221,2.61-1.919,2.864-3.548,2.586
	c-3.651-0.624-6.689,1.305-10.006,2.058c-2.126,0.483-2.955,2.027-3.2,3.909c-0.254,1.951,1.082,3.073,2.643,3.831
	c5.358,2.603,10.968,2.359,16.586,1.192c4.388-0.911,8.727-2.058,13.097-3.057c1.256-0.287,2.851-0.885,3.354,0.919
	c0.531,1.901-1.171,1.968-2.429,2.33c-9.694,2.79-19.227,6.987-29.648,3.566c-2.363-0.776-4.81-1.556-6.907-2.842
	c-6.497-3.983-12.56-3.115-18.601,0.955c-5.032,3.392-10.341,6.069-16.709,5.349C61.805,178.123,61.061,177.955,59.742,177.728z"/>
<path fill-rule="evenodd" clip-rule="evenodd" fill="#FFFFFF" d="M113.13,184.614c10.363-5.084,20.913-7.669,31.794-9.182
	c1.928-0.268,2.197,1.145,2.86,2.157c2.831,4.335,6.431,5.256,11.137,3.047c7.051-3.31,14.204-6.404,21.315-9.586
	c1.331-0.596,2.66-1.674,4.113-0.325c1.294,1.202,0.259,2.481-0.012,3.707c-1.504,6.807-4.981,12.198-11.162,15.712
	c-4.039,2.297-7.975,4.777-12.025,7.05c-1.178,0.66-2.87,2.126-3.875,0.286c-0.864-1.584,1.245-1.967,2.228-2.672
	c3.775-2.711,7.609-5.345,11.384-8.06c2.895-2.081,5.167-4.646,6.041-8.289c-1.858-1.128-3.198,0.134-4.604,0.813
	c-5.229,2.525-10.394,5.19-15.673,7.604c-3.831,1.752-7.441,1.804-9.934-2.431c-1.618-2.748-4.288-3.453-7.241-3.601
	c-6.983-0.35-13.554,1.278-19.636,4.555C117.468,186.677,115.635,187.062,113.13,184.614z"/>
<path fill-rule="evenodd" clip-rule="evenodd" fill="#FFFFFF" d="M118.55,164.486c3.647-4.716,8.371-7.532,14.063-8.414
	c5.584-0.864,11.345-1.624,16.88-0.1c6.11,1.683,11.821,0.608,17.595-1.175c1.234-0.382,2.759-1.998,3.542,0.548
	c0.679,2.21-1.247,2.239-2.465,2.913c-7.353,4.064-15.303,4.562-23.304,3.296c-8.111-1.283-15.885-1.709-23.021,3.3
	C121.021,165.431,119.941,165.388,118.55,164.486z"/>
<path fill-rule="evenodd" clip-rule="evenodd" fill="#FFFFFF" d="M153.042,167.802c6.055,0.505,11.318-0.975,16.245-4.813
	c5.318-4.142,11.38-2.188,17.165-0.644c1.018,0.272,1.578,1.185,1.158,2.363c-0.456,1.278-1.273,1.127-2.362,0.766
	c-5.525-1.834-9.885-0.185-14.651,3.258c-6.505,4.697-14.356,4.294-22.055,2.608c-1.777-0.39-2.221-1.726-2.189-2.833
	c0.043-1.524,1.583-1.315,2.74-1.19C150.411,167.459,151.726,167.639,153.042,167.802z"/>
<path fill-rule="evenodd" clip-rule="evenodd" fill="#FFFFFF" d="M93.764,147.462c3.134-4.766,6.87-9.076,8.645-14.572
	c0.229-0.709,1.395-0.847,2.216-0.403c1.301,0.702,1.187,1.732,0.722,2.961C103.216,141.085,98.818,144.514,93.764,147.462z"/>
<path fill-rule="evenodd" clip-rule="evenodd" fill="#FFFFFF" d="M129.091,76.987c-1.58-0.054-2.59-0.976-2.65-2.434
	c-0.068-1.663,0.773-2.796,2.724-2.75c1.759,0.042,2.404,1.234,2.418,2.583C131.598,75.813,130.708,76.865,129.091,76.987z"/>
<path fill-rule="evenodd" clip-rule="evenodd" fill="#FFFFFF" d="M125.174,110.551c-0.062,1.68-0.92,2.501-2.436,2.64
	c-1.559,0.143-2.621-0.614-2.722-2.145c-0.099-1.495,0.854-2.562,2.338-2.657C123.813,108.294,124.777,109.206,125.174,110.551z"/>
<path fill-rule="evenodd" clip-rule="evenodd" fill="#FFFFFF" d="M178.792,79.596c-0.307,2.373-1.458,3.519-3.319,3.464
	c-1.893-0.057-3.027-1.309-2.927-3.25c0.1-1.913,1.194-2.983,3.207-2.934C177.822,76.927,178.495,78.281,178.792,79.596z"/>
</svg>
